# xmcd
#
# Track frame offsets:
#	150
#	13662
#	29997
#	44363
#	57607
#	75776
#	92498
#	111581
#	135125
#	147663
#	167418
#	184581
#
# Disc length: 2660 seconds
#
# Revision: 0
# Processed by: cddbd v1.5.1PL0 Copyright (c) Steve Scherf et al.
# Submitted via: audiograbber 1.83.01
#
DISCID=9d0a620c
DTITLE=DONIZETTI, DALVAN E MARLON - COWBOYS DO BRASIL
DYEAR=1900
DGENRE=
TTITLE0=COWBOYS DO BRASIL
TTITLE1=SOU SEU COWBOY
TTITLE2=AI AMOR
TTITLE3=PEÃO APAIXONADO
TTITLE4=PASSANDO A LIMPO
TTITLE5=SEGURA QUE ESSE TOURO É BOM
TTITLE6=MENINO COWBOY
TTITLE7=VIVER LONGE DE VOCÊ NÃO DÁ
TTITLE8=NOITE DE FESTA
TTITLE9=MINHA ESTRADA
TTITLE10=O MELHOR COWBOY
TTITLE11=A FÉ É CAPAZ
EXTD=
EXTT0=
EXTT1=
EXTT2=
EXTT3=
EXTT4=
EXTT5=
EXTT6=
EXTT7=
EXTT8=
EXTT9=
EXTT10=
EXTT11=
PLAYORDER=
